# xmcd
#
# Track frame offsets:
#	150
#	11993
#	23709
#	33893
#	48206
#	61852
#	68377
#	83002
#	95780
#	112198
#	114396
#	129627
#	144781
#	161669
#	176065
#	190682
#	208266
#	216296
#	238466
#	255025
#
# Disc length: 3663 seconds
#
# Revision: 1
# Processed by: cddbd v1.5.2PL0 Copyright (c) Steve Scherf et al.
# Submitted via: audiograbber 1.83.01
#
DISCID=130e4d14
DTITLE=Loungepaket and Jannes Krinner - Wirtshaus der Soundtrack
DYEAR=2007
DGENRE=Folk
TTITLE0=am Aunfang woas finsta
TTITLE1=imma waunna tramp
TTITLE2=Klapotetz
TTITLE3=sBleamerl
TTITLE4=die gölwi Moped
TTITLE5=da Sinn van Leibm
TTITLE6=sVougerl
TTITLE7=neiche und a oide
TTITLE8=da Aureiba
TTITLE9=Klapotetz Marsch
TTITLE10=a praktische Frau
TTITLE11=er bleibb imma iwa
TTITLE12=Höllntaxi
TTITLE13=da Schuarl
TTITLE14=Goassbeitlbauernbua
TTITLE15=Spinnannejtz aus Sülbm
TTITLE16=Klapotetz süd
TTITLE17=nix greijdt is gsogg gnua
TTITLE18=Trailer
TTITLE19=Klapotetz Marsch
EXTD=
EXTT0=
EXTT1=
EXTT2=
EXTT3=
EXTT4=
EXTT5=
EXTT6=
EXTT7=
EXTT8=
EXTT9=
EXTT10=
EXTT11=
EXTT12=
EXTT13=
EXTT14=
EXTT15=
EXTT16=
EXTT17=
EXTT18=
EXTT19=
PLAYORDER=
